<?xml version="1.0" standalone="no"?>
<!DOCTYPE svg PUBLIC "-//W3C//DTD SVG 20010904//EN"
 "http://www.w3.org/TR/2001/REC-SVG-20010904/DTD/svg10.dtd">
<svg version="1.0" xmlns="http://www.w3.org/2000/svg"
 width="236.000000pt" height="236.000000pt" viewBox="0 0 236.000000 236.000000"
 preserveAspectRatio="xMidYMid meet">
<metadata>
Created by potrace 1.11, written by Peter Selinger 2001-2013
</metadata>
<g transform="translate(0.000000,236.000000) scale(0.100000,-0.100000)"
fill="#000000" stroke="none">
<path d="M895 2286 c-22 -7 -55 -11 -72 -10 -18 0 -33 -3 -33 -7 0 -5 -3 -8
-7 -7 -7 2 -73 -11 -93 -17 -19 -6 -71 -29 -102 -45 -20 -10 -38 -17 -40 -14
-3 2 -13 -5 -23 -16 -10 -11 -22 -20 -27 -20 -13 0 -118 -72 -118 -81 0 -5 -6
-8 -12 -7 -7 2 -12 -3 -10 -9 1 -7 -3 -13 -8 -13 -15 0 -128 -120 -136 -142
-3 -10 -10 -18 -16 -18 -6 0 -9 -3 -5 -6 3 -3 -6 -17 -19 -29 -14 -13 -25 -26
-25 -29 1 -4 -12 -33 -29 -66 -16 -32 -41 -98 -55 -146 -24 -83 -25 -98 -23
-304 2 -155 7 -221 15 -232 7 -8 10 -18 7 -21 -3 -3 -2 -12 2 -19 5 -7 9 -16
10 -20 1 -5 2 -9 4 -10 1 -2 3 -12 5 -22 2 -10 9 -22 15 -26 7 -4 11 -11 11
-16 -2 -12 32 -78 42 -82 4 -2 5 -8 1 -13 -3 -5 0 -9 5 -9 6 0 11 -7 11 -15 0
-8 -4 -15 -9 -15 -22 0 -39 -30 -32 -57 5 -20 14 -27 34 -28 15 -1 31 5 36 12
4 8 11 14 14 14 13 -2 44 -36 40 -43 -2 -5 2 -8 10 -8 7 0 20 -11 27 -25 7
-14 15 -23 17 -22 2 2 26 -18 55 -45 28 -26 58 -48 66 -48 9 0 12 -3 9 -7 -7
-6 18 -24 66 -45 15 -7 27 -16 27 -21 0 -4 5 -5 10 -2 6 3 10 1 10 -5 0 -6 4
-9 9 -6 5 3 12 -1 15 -10 3 -8 11 -12 16 -9 6 4 17 1 25 -5 8 -6 19 -9 25 -5
5 3 10 2 10 -4 0 -10 39 -27 53 -23 4 1 17 -3 28 -9 11 -6 33 -11 50 -11 16
-1 29 -4 29 -9 0 -4 8 -6 18 -4 9 1 27 -2 40 -6 15 -6 22 -5 22 4 0 8 3 8 8 2
4 -6 43 -10 87 -10 112 2 111 2 110 -94 -1 -45 2 -81 7 -81 5 0 6 -5 3 -10 -4
-6 7 -24 24 -40 16 -17 26 -30 23 -30 -4 0 6 -7 22 -15 25 -13 104 -15 546
-15 l518 1 4 33 c2 19 -2 38 -9 45 -7 6 -13 9 -13 5 0 -4 -11 6 -25 21 -17 20
-21 33 -14 41 5 7 8 17 7 23 -2 6 10 21 26 34 l30 24 0 628 c1 345 -2 632 -6
638 -4 7 -8 8 -8 4 0 -4 -8 -3 -19 2 -10 6 -21 7 -25 4 -11 -11 -36 -12 -36
-2 0 6 -8 6 -19 -1 -14 -7 -22 -7 -26 0 -5 8 -11 8 -20 0 -9 -8 -15 -8 -20 0
-3 6 -11 8 -16 4 -15 -9 -59 -12 -59 -4 0 3 -13 5 -30 2 -22 -3 -30 0 -30 11
0 8 -5 17 -11 19 -5 2 -7 10 -4 19 6 16 50 19 73 5 7 -4 12 -4 12 1 0 4 31 8
70 8 40 0 70 -4 70 -10 0 -7 3 -7 8 0 9 13 55 14 64 0 5 -6 8 -5 8 3 0 7 5 10
10 7 6 -3 11 1 11 9 1 9 2 22 3 29 1 6 -3 19 -10 27 -11 13 -42 16 -181 15
-93 -1 -173 -4 -179 -8 -6 -3 -14 -3 -18 1 -4 3 -30 7 -57 7 -27 0 -49 3 -49
8 0 81 1 84 18 85 39 4 186 1 193 -4 4 -2 10 -1 12 3 3 5 40 6 82 3 42 -3 79
-3 81 -1 9 9 34 9 34 1 0 -5 13 -5 29 0 16 4 32 6 35 2 5 -5 8 6 9 41 0 19
-14 47 -25 47 -5 0 -6 -5 -2 -11 5 -8 1 -8 -14 0 -26 14 -35 14 -27 1 4 -6 -2
-7 -18 -1 -13 5 -30 6 -37 1 -7 -5 -24 -4 -37 1 -30 11 -36 11 -29 1 3 -5 -1
-9 -9 -9 -8 0 -15 4 -15 8 0 8 -26 6 -36 -3 -3 -4 -17 -3 -31 3 -31 12 -36 11
-27 -2 4 -8 1 -8 -12 -2 -23 10 -45 10 -61 0 -7 -5 -13 -4 -13 0 0 5 -9 9 -20
10 -12 1 -18 -3 -14 -9 4 -7 0 -7 -12 0 -11 5 -27 8 -36 7 -9 -2 -19 3 -22 11
-3 8 0 14 6 14 9 0 9 3 0 12 -13 13 -17 32 -4 25 4 -3 7 11 7 31 0 35 0 35 45
37 25 1 53 -3 64 -8 10 -5 16 -5 13 0 -3 4 78 8 179 7 101 0 184 2 185 5 1 3
2 21 3 39 2 27 -1 32 -16 29 -10 -3 -16 -2 -13 3 3 4 -6 7 -20 6 -14 0 -25 -4
-25 -8 0 -4 -7 -5 -15 -2 -26 10 -115 9 -115 -1 0 -7 -3 -7 -8 0 -4 6 -16 10
-27 10 -11 0 -23 -4 -27 -10 -5 -7 -8 -6 -8 0 0 6 -9 11 -20 11 -11 0 -20 -3
-20 -7 0 -4 -16 -3 -35 1 -24 5 -35 4 -35 -4 0 -6 -5 -4 -10 4 -9 13 -10 13
-10 0 0 -9 -3 -11 -8 -5 -9 12 -42 16 -42 5 0 -14 -40 2 -41 16 -1 8 -2 20 -3
27 -1 6 3 18 8 26 8 11 8 13 -1 7 -9 -5 -11 -2 -7 8 3 9 18 16 33 17 146 4
289 3 303 -3 9 -5 19 -4 22 0 3 4 31 7 63 6 62 -2 83 7 78 34 -2 9 -4 23 -4
31 -1 7 -7 11 -15 8 -8 -3 -17 -1 -20 6 -3 8 -5 8 -5 -2 -1 -11 -4 -11 -16 -1
-10 8 -15 9 -15 2 0 -6 -7 -9 -15 -6 -23 9 -385 10 -385 2 0 -5 -5 -8 -11 -8
-5 0 -8 3 -6 8 3 4 -6 7 -19 7 -13 0 -24 -4 -24 -8 0 -5 -3 -6 -8 -3 -10 6
-83 -49 -75 -58 3 -3 2 -6 -3 -6 -5 0 -30 -18 -54 -40 -33 -28 -52 -38 -69
-35 -13 2 -27 8 -30 13 -10 15 -108 62 -115 55 -3 -4 -6 -1 -6 6 0 7 -4 9 -10
6 -5 -3 -10 -1 -10 5 0 7 -6 10 -14 7 -7 -3 -18 -1 -23 4 -5 5 -21 10 -36 11
-15 1 -27 5 -27 9 0 3 -6 6 -12 7 -7 0 -35 4 -63 7 -27 4 -73 7 -102 8 -28 1
-49 5 -47 9 5 8 -36 2 -44 -7 -3 -2 -10 -1 -16 4 -6 5 -28 4 -51 -3z m-40 -85
c3 -6 -13 -28 -35 -51 -22 -22 -40 -45 -40 -50 0 -4 -3 -10 -8 -12 -11 -5 -85
-98 -78 -98 7 0 -4 -15 -36 -51 -10 -10 -18 -20 -17 -21 3 -11 -23 -58 -31
-58 -5 0 -9 -3 -8 -7 3 -13 -25 -83 -34 -83 -4 0 -7 -3 -7 -7 3 -20 -2 -30
-16 -30 -8 0 -15 3 -15 6 0 4 -11 8 -26 9 -14 1 -34 7 -45 13 -12 6 -32 13
-46 15 -14 3 -42 12 -62 21 -20 9 -40 15 -44 14 -4 -1 -15 6 -24 14 -13 13
-13 18 -1 33 7 9 19 21 26 25 6 4 12 13 12 18 0 32 256 229 274 211 3 -3 6 0
6 6 0 7 3 11 8 10 4 -1 26 8 50 19 23 12 39 16 36 10 -5 -8 -2 -7 7 1 7 6 21
12 31 12 10 0 18 4 18 9 0 5 8 8 18 6 9 -1 22 2 29 7 7 5 17 7 22 4 5 -4 12
-2 16 4 8 12 12 13 20 1z m313 -6 c12 1 22 -3 22 -8 0 -5 7 -7 15 -3 8 3 15 1
15 -4 0 -5 7 -7 15 -4 8 4 15 2 15 -4 0 -6 9 -8 20 -5 12 3 20 0 20 -6 0 -7 5
-9 10 -6 6 3 10 1 10 -4 0 -6 3 -10 8 -10 4 1 10 0 15 -1 4 -1 10 -3 15 -4 4
-1 21 -9 38 -19 17 -9 34 -13 38 -10 3 4 6 -1 6 -11 0 -9 5 -14 10 -11 44 27
-53 -74 -104 -108 -7 -5 -2 -15 16 -31 15 -13 24 -27 21 -30 -4 -3 -1 -6 5 -6
12 0 34 -17 101 -77 20 -18 39 -33 44 -33 4 0 7 -6 7 -14 0 -8 6 -17 13 -19 7
-3 5 -6 -5 -6 -10 -1 -20 -1 -23 -1 -3 -1 -22 -7 -44 -15 -32 -11 -42 -11 -50
-1 -6 7 -8 16 -4 19 3 4 1 7 -6 7 -7 0 -9 5 -6 10 3 6 1 10 -4 10 -6 0 -11 8
-11 18 0 10 -7 28 -16 40 -8 12 -12 27 -8 34 4 7 3 8 -4 4 -7 -4 -12 -2 -12 4
0 6 -7 18 -15 27 -8 8 -13 19 -10 24 4 5 3 9 -2 9 -4 0 -24 24 -43 53 -19 28
-50 68 -67 87 -18 19 -33 41 -33 48 0 6 -5 11 -11 10 -7 -2 -21 13 -32 32 -13
22 -16 31 -7 24 8 -6 25 -10 38 -9z m-214 -275 c0 -177 -3 -223 -14 -230 -8
-5 -17 -7 -21 -4 -4 2 -43 5 -88 6 -44 2 -81 6 -81 11 0 4 -4 5 -10 2 -5 -3
-10 0 -11 7 0 9 -2 10 -5 1 -3 -7 -11 -10 -17 -8 -7 2 -24 6 -39 9 -25 6 -33
23 -17 36 10 8 53 104 51 113 -1 4 2 7 7 7 5 0 14 14 21 30 7 17 16 30 21 30
5 0 9 7 9 15 0 8 5 15 10 15 6 0 10 5 10 10 0 12 12 29 57 76 17 19 29 34 27
34 -2 0 16 18 39 39 23 22 44 36 47 31 3 -5 5 -108 4 -230z m118 210 c7 -11
19 -20 26 -20 7 0 10 -5 7 -10 -3 -6 1 -13 9 -16 9 -3 16 -12 16 -20 0 -8 6
-14 14 -14 8 0 18 -9 21 -20 3 -11 11 -20 16 -20 6 0 8 -4 5 -8 -3 -5 4 -14
14 -22 10 -8 17 -17 14 -22 -3 -4 0 -8 5 -8 6 0 11 -6 11 -13 0 -7 9 -23 20
-35 11 -12 20 -26 20 -32 0 -5 4 -10 10 -10 5 0 7 -6 4 -13 -3 -8 2 -20 11
-27 8 -7 15 -18 15 -25 0 -7 7 -18 15 -25 13 -11 13 -15 3 -21 -7 -5 -8 -9 -2
-9 6 0 11 -6 11 -13 0 -8 -14 -14 -32 -15 -17 -1 -42 -5 -55 -8 -14 -3 -69 -8
-122 -11 -91 -5 -96 -4 -94 13 2 11 -2 22 -8 26 -8 5 -7 8 2 8 10 0 10 5 1 21
-6 12 -7 19 -1 15 10 -6 9 70 -1 81 -4 3 1 12 11 20 9 8 11 11 3 7 -10 -5 -13
-3 -8 8 3 9 0 21 -6 27 -6 6 -7 11 -1 11 5 0 10 9 10 20 0 11 -5 20 -11 20 -5
0 -4 4 3 9 8 4 14 12 14 16 0 4 -6 12 -14 16 -10 7 -10 9 0 9 10 0 10 5 1 21
-8 15 -8 19 0 15 6 -4 11 -4 11 -1 0 4 -5 16 -11 27 -8 15 -8 19 0 14 15 -10
14 7 -1 22 -9 9 -8 12 8 12 16 0 17 2 4 10 -13 8 -12 10 2 10 10 0 23 -9 30
-20z m598 0 c0 -11 -6 -20 -12 -20 -10 0 -10 -2 -1 -8 8 -5 11 -43 10 -125 -1
-72 2 -117 8 -117 6 0 5 -4 -2 -8 -7 -5 -10 -21 -7 -41 l6 -34 -26 16 c-28 19
-92 74 -143 125 -18 18 -36 32 -40 31 -21 -2 -10 23 23 53 20 18 52 48 70 65
19 18 34 30 34 26 0 -3 11 6 25 21 14 15 30 24 37 20 7 -4 8 -3 4 4 -4 7 -2
12 3 12 6 0 11 -9 11 -20z m-1430 -377 c0 4 13 1 29 -7 16 -9 31 -12 35 -9 3
4 6 1 6 -5 0 -6 16 -14 35 -18 19 -3 38 -10 41 -15 3 -5 16 -9 29 -9 13 0 27
-4 30 -10 3 -5 19 -10 34 -10 16 0 33 -6 38 -12 11 -14 7 -62 -7 -88 -6 -11
-5 -21 2 -28 8 -8 8 -13 -3 -17 -8 -3 -14 -15 -14 -28 1 -12 -1 -47 -4 -77
l-6 -55 -187 0 c-104 0 -189 2 -189 5 -6 20 -5 80 1 80 4 0 6 10 5 23 -1 12 3
28 9 36 9 12 8 13 -4 6 -12 -7 -13 -6 -3 6 7 9 14 24 16 35 1 10 5 24 8 29 7
12 20 62 18 71 0 4 4 10 9 13 5 3 19 28 31 56 17 38 24 46 31 35 5 -8 10 -12
10 -7z m1413 -75 c26 -25 41 -32 50 -26 1 1 12 -4 24 -10 12 -7 24 -8 27 -4 6
11 46 9 64 -2 7 -4 11 -15 8 -23 -3 -8 -1 -11 4 -8 6 3 10 0 10 -8 0 -10 -9
-14 -30 -13 -16 1 -30 -1 -30 -4 0 -4 -7 -7 -15 -7 -8 0 -15 4 -15 9 0 5 -9 4
-19 -2 -14 -7 -22 -7 -26 0 -4 6 -11 7 -17 4 -6 -4 -30 -7 -54 -6 -24 0 -71 1
-103 1 -53 1 -61 4 -67 24 -12 36 -13 47 -3 47 6 0 8 4 5 9 -4 5 2 8 11 6 10
-1 23 0 28 4 6 3 13 6 18 7 4 1 8 2 10 4 3 2 40 11 55 12 6 1 12 5 12 10 0 14
23 4 53 -24z m-1029 -50 c-6 -10 -5 -10 8 -1 8 7 17 11 19 8 4 -4 33 -8 149
-20 19 -2 61 -5 92 -6 43 -1 57 -5 60 -18 3 -14 3 -178 -1 -214 -1 -10 -41
-12 -183 -11 -101 1 -188 2 -193 3 -11 1 -16 41 -5 41 3 0 5 12 6 28 1 51 14
125 23 136 6 7 6 18 1 26 -6 9 -3 18 8 27 22 16 25 16 16 1z m750 3 c4 -1 6
-7 3 -15 -3 -7 -1 -18 4 -23 6 -6 -7 -10 -33 -12 -23 -1 -45 -4 -50 -7 -4 -3
-8 1 -8 8 0 9 -3 9 -10 -2 -6 -10 -10 -11 -10 -3 0 9 -7 10 -24 3 -13 -5 -26
-6 -29 -4 -17 17 -124 -76 -111 -97 3 -5 1 -9 -4 -9 -5 0 -8 -22 -7 -50 2 -27
0 -50 -4 -51 -3 0 -14 -2 -24 -4 -11 -2 -23 7 -33 27 -9 17 -12 28 -7 25 5 -3
8 38 8 91 l0 97 57 0 c32 0 58 3 58 7 0 3 8 5 18 3 9 -1 27 2 40 6 16 6 21 6
16 -2 -5 -8 -1 -8 14 0 11 6 27 8 35 5 8 -3 17 -2 20 3 4 7 33 8 81 4z m-68
-141 c5 1 15 6 22 12 6 6 12 7 12 2 0 -11 51 -10 68 0 7 4 12 3 12 -3 0 -7 8
-7 25 -1 18 7 25 6 25 -3 0 -8 4 -7 10 3 6 9 10 10 10 3 0 -11 34 -10 68 2 6
2 12 1 12 -4 0 -9 74 -6 89 4 5 3 11 0 13 -6 3 -9 10 -8 28 1 17 9 25 10 28 2
3 -9 9 -9 23 -2 10 6 19 7 19 3 0 -10 41 -10 58 1 7 4 12 2 12 -4 0 -6 5 -8
13 -3 18 11 37 13 37 3 0 -5 14 -5 30 0 17 5 30 5 30 0 0 -4 16 -4 35 0 19 4
35 4 35 -1 0 -5 11 -4 24 1 17 6 26 5 28 -2 3 -7 9 -8 19 -3 20 13 52 12 65
-1 13 -12 24 -204 12 -204 -4 0 -5 -6 -3 -12 7 -20 12 -148 6 -148 -4 0 -6
-168 -6 -372 0 -210 -4 -374 -9 -375 -5 -1 -13 -7 -17 -15 -5 -7 -9 -8 -9 -3
0 6 -20 10 -45 10 -25 0 -45 -4 -45 -10 0 -5 -5 -3 -10 5 -8 12 -10 12 -10 1
0 -11 -3 -11 -15 -1 -10 8 -15 9 -15 2 0 -6 -6 -9 -12 -7 -28 11 -98 11 -98 1
0 -6 -5 -4 -11 4 -9 12 -12 13 -16 1 -5 -11 -7 -11 -14 0 -5 9 -9 10 -9 3 0
-8 -11 -9 -35 -4 -24 5 -35 4 -35 -4 0 -6 -5 -4 -10 4 -9 13 -10 13 -10 0 0
-9 -3 -11 -8 -5 -4 6 -26 10 -50 10 -23 0 -42 -4 -42 -10 0 -5 -5 -3 -10 5 -5
8 -10 11 -10 5 0 -5 -11 -10 -25 -10 -14 0 -25 5 -25 10 0 7 -3 7 -8 0 -4 -5
-44 -10 -90 -10 -48 0 -82 4 -82 10 0 7 -3 7 -8 0 -4 -5 -38 -10 -77 -10 -38
0 -73 5 -77 10 -5 6 -8 5 -8 -2 0 -7 -7 -13 -16 -13 -8 0 -12 4 -9 10 3 5 0 7
-8 5 -10 -5 -13 16 -12 104 0 60 4 113 7 117 4 4 4 12 1 18 -11 16 -10 235 0
229 5 -3 4 4 -2 15 -7 14 -8 23 -1 27 6 4 7 12 3 18 -10 17 -11 109 0 124 4 6
4 14 -1 17 -7 4 -9 133 -2 161 1 6 1 12 0 15 -7 19 -7 70 1 70 6 0 7 6 2 13
-12 20 -14 47 -2 47 5 0 7 5 4 11 -11 17 -12 89 -2 89 6 0 8 3 5 6 -9 9 32 46
45 41 7 -2 21 -1 32 3 11 4 23 3 26 -2 3 -5 10 -9 15 -8z m-1112 -211 c-5 -9
-3 -9 7 -3 22 14 229 15 229 1 0 -8 3 -7 9 2 5 8 16 11 29 7 21 -7 39 -36 21
-36 -6 0 -7 -5 -3 -11 3 -6 8 -32 10 -58 2 -25 9 -71 17 -101 17 -73 16 -84
-8 -88 -11 -2 -29 -7 -40 -12 -11 -6 -29 -11 -40 -13 -11 -1 -35 -10 -53 -19
-18 -9 -29 -12 -26 -6 4 5 -5 3 -18 -6 -14 -9 -28 -13 -31 -9 -4 3 -7 2 -7 -4
0 -9 -24 -20 -67 -29 -11 -2 -37 47 -33 62 1 4 -2 10 -7 13 -12 9 -36 54 -25
47 6 -3 1 12 -10 35 -10 22 -20 54 -20 70 -1 16 -4 29 -8 29 -4 0 -7 6 -7 13
-1 6 -3 29 -6 49 -9 63 -1 75 49 77 32 1 43 -2 38 -10z m416 -1 c0 -9 3 -10 8
-2 8 12 309 14 327 2 12 -7 14 -213 2 -224 -7 -7 -84 -15 -169 -17 -27 -1 -48
-4 -48 -7 0 -3 -30 -6 -66 -8 -45 -2 -64 1 -59 8 4 6 -1 22 -9 35 -12 19 -13
25 -4 25 9 0 9 3 2 8 -5 4 -9 22 -8 40 0 17 -3 32 -9 32 -6 0 -8 3 -4 6 3 3 2
17 -3 30 -5 13 -6 24 -2 24 4 0 8 9 8 19 0 11 -4 17 -8 15 -4 -3 -8 -1 -8 5 0
5 6 12 13 14 22 10 37 7 37 -5z m483 -3 c4 -8 2 -17 -4 -20 -5 -4 -6 -12 -2
-18 11 -18 10 -90 -2 -106 -7 -10 -7 -13 0 -9 7 4 10 -10 10 -36 0 -36 -3 -43
-20 -42 -11 1 -25 6 -31 11 -15 14 -14 195 1 195 5 0 4 4 -4 9 -7 5 -10 14 -7
20 10 16 53 13 59 -4z m-146 -318 c9 -14 11 -457 2 -463 -4 -2 -32 23 -62 55
-30 33 -58 57 -63 53 -4 -4 -4 -2 -1 4 3 6 -7 26 -23 45 -16 19 -29 40 -30 47
0 6 -5 12 -11 12 -5 0 -7 5 -4 10 3 6 -1 10 -10 10 -11 0 -15 5 -11 15 3 9 -1
18 -9 21 -8 4 -13 10 -10 14 3 5 1 11 -4 15 -13 7 -41 64 -41 82 0 7 -4 13 -9
13 -5 0 -11 9 -14 20 -3 11 -1 18 4 14 5 -3 9 2 9 10 0 8 8 15 18 15 35 -1
174 10 177 13 10 9 86 5 92 -5z m128 7 c18 -5 20 -13 20 -94 -1 -49 -4 -92 -8
-96 -3 -4 -3 -12 0 -18 11 -17 11 -106 0 -99 -6 4 -7 1 -2 -7 5 -7 9 -32 9
-54 1 -30 -5 -48 -23 -68 -32 -37 -41 -35 -39 7 1 19 6 35 12 35 8 0 8 2 0 8
-7 5 -11 61 -10 167 1 94 -3 166 -9 174 -7 11 -7 13 3 7 9 -6 11 -1 8 18 -5
27 2 30 39 20z m-510 -64 c-3 -5 2 -16 11 -24 8 -9 13 -16 9 -16 -3 0 0 -10 7
-22 7 -13 12 -25 13 -28 0 -3 10 -19 22 -36 12 -17 20 -34 16 -38 -3 -3 0 -6
7 -6 7 0 11 -3 7 -6 -3 -4 -1 -12 6 -20 30 -33 37 -44 30 -44 -4 0 2 -7 13
-15 10 -8 16 -15 11 -15 -6 0 27 -41 70 -85 7 -7 10 -15 7 -18 -3 -3 4 -8 15
-12 12 -3 21 -13 21 -21 0 -8 4 -14 9 -14 5 0 11 -9 14 -21 4 -16 3 -18 -9 -8
-8 6 -14 8 -14 3 0 -5 -4 -4 -8 2 -4 7 -23 13 -42 15 -19 2 -40 7 -46 11 -7 5
-22 11 -35 13 -12 2 -40 13 -62 24 -22 11 -44 18 -49 15 -4 -3 -8 0 -8 5 0 6
-7 11 -15 11 -8 0 -15 5 -15 10 0 6 -7 10 -15 10 -8 0 -15 5 -15 11 0 5 -4 8
-8 5 -5 -3 -25 10 -45 28 -20 18 -38 32 -40 30 -2 -2 -15 9 -30 25 -14 16 -32
33 -40 38 -8 4 -31 30 -51 57 l-37 49 28 18 c15 11 34 17 41 14 7 -3 10 0 7 5
-3 6 -3 10 2 11 4 0 17 3 28 5 11 3 26 6 33 6 6 1 12 6 12 11 0 6 3 8 6 4 4
-3 23 0 43 8 61 23 109 26 96 5z m1536 -609 c9 -1 5 -55 -5 -62 -5 -4 -5 -13
0 -20 12 -20 14 -39 3 -39 -6 0 -7 -5 -3 -11 4 -8 0 -8 -15 0 -11 7 -21 8 -21
3 0 -4 -9 -8 -20 -8 -11 0 -20 4 -20 8 0 5 -9 4 -20 -2 -11 -6 -20 -7 -20 -2
0 4 -9 8 -20 8 -11 0 -20 -4 -20 -8 0 -5 -9 -4 -20 2 -11 6 -20 7 -20 2 0 -4
-9 -8 -20 -8 -11 0 -20 4 -20 8 0 5 -9 4 -20 -2 -11 -6 -20 -7 -20 -2 0 4 -9
8 -20 8 -11 0 -20 -3 -20 -7 0 -3 -12 -4 -27 -2 -53 7 -93 8 -93 2 0 -8 -38
-5 -46 4 -4 4 -13 2 -21 -4 -7 -6 -13 -7 -13 -2 0 5 -9 9 -20 9 -11 0 -20 -3
-20 -7 0 -3 -12 -4 -27 -2 -53 7 -93 8 -93 2 0 -8 -38 -5 -46 4 -4 4 -13 2
-21 -4 -7 -6 -13 -7 -13 -2 0 5 -9 9 -20 9 -11 0 -20 -4 -20 -8 0 -5 -9 -4
-20 2 -14 8 -20 8 -20 0 0 -7 -6 -8 -19 -1 -10 6 -21 8 -24 5 -7 -7 -38 40
-41 63 -4 23 33 61 64 65 21 2 842 2 861 -1z"/>
<path d="M1463 1443 c3 -5 -43 -9 -109 -8 -72 0 -114 -3 -115 -10 -1 -12 -1
-547 0 -556 1 -4 30 -6 66 -5 36 1 65 -2 65 -6 0 -4 10 -4 22 1 13 4 35 5 50
1 14 -5 28 -7 30 -5 2 1 16 5 31 9 21 5 27 4 21 -5 -5 -8 -3 -9 5 -4 10 6 93
8 154 4 6 -1 20 2 30 6 9 4 17 3 17 -3 0 -5 16 -6 40 -2 22 4 43 3 46 -1 3 -5
13 -5 22 0 10 5 24 6 33 1 8 -5 21 -5 29 0 7 4 24 4 37 -1 13 -5 22 -5 19 -1
-3 5 19 7 49 4 30 -2 64 -2 77 1 l23 6 0 281 c0 181 -3 280 -10 281 -5 1 -20
3 -31 4 -12 1 -26 5 -32 9 -6 3 -13 2 -16 -2 -6 -10 -97 -9 -113 1 -7 4 -14 3
-18 -3 -4 -7 -13 -6 -27 1 -15 8 -19 8 -14 0 9 -14 -7 -14 -21 0 -8 8 -13 8
-17 0 -5 -8 -13 -8 -28 0 -15 8 -19 8 -14 0 9 -14 -7 -14 -21 0 -8 8 -13 8
-17 0 -5 -8 -13 -8 -28 0 -15 8 -19 8 -14 0 4 -6 3 -11 -3 -11 -5 0 -13 5 -16
10 -4 6 -11 7 -18 3 -17 -10 -150 -11 -171 0 -10 5 -16 5 -13 0z m558 -98 c6
-68 5 -94 -4 -88 -6 4 -7 1 -2 -7 11 -17 13 -280 3 -280 -5 0 -7 -3 -7 -7 4
-23 -2 -33 -13 -26 -21 12 -48 14 -48 2 0 -8 -4 -8 -12 -2 -15 11 -87 11 -105
0 -6 -4 -14 -3 -18 3 -6 10 -40 9 -51 -2 -10 -11 -34 3 -27 16 5 8 3 8 -8 0
-21 -16 -79 -17 -79 -2 0 10 -2 10 -8 1 -8 -13 -29 -12 -51 1 -10 7 -12 5 -6
-3 5 -9 -1 -11 -23 -8 -17 3 -33 2 -37 -1 -9 -9 -36 -11 -30 -2 2 4 -6 8 -20
8 -14 0 -22 -5 -18 -11 4 -6 1 -7 -8 -1 -21 13 -39 14 -39 2 0 -7 -4 -7 -13 0
-14 12 -35 11 -54 -1 -14 -9 -21 2 -18 26 2 9 0 17 -4 17 -10 0 -7 84 4 93 6
4 5 10 -3 16 -19 11 -19 15 -3 34 9 12 10 17 2 17 -8 0 -9 5 -1 19 7 14 7 22
0 26 -8 5 -7 11 1 21 9 11 9 14 -1 14 -10 0 -10 3 0 15 7 9 8 15 2 15 -11 0
-11 18 1 37 4 6 2 15 -4 19 -8 4 -7 9 2 15 12 7 12 9 0 9 -10 0 -11 3 -3 13
13 16 701 18 703 2z"/>
<path d="M1747 788 c2 -5 1 -8 -4 -8 -4 0 -8 -11 -8 -25 0 -33 19 -39 133 -40
70 0 91 3 87 12 -2 7 -1 13 4 13 10 0 8 37 -3 47 -10 10 -216 11 -209 1z"/>
<path d="M2024 775 c-9 -35 12 -66 41 -62 13 1 27 6 31 10 10 9 15 67 6 68
-51 10 -72 6 -78 -16z"/>
<path d="M148 657 c-19 -15 -31 -47 -18 -47 5 0 7 -7 4 -15 -4 -9 0 -15 10
-16 9 -1 22 -2 29 -3 21 -4 37 15 37 45 0 26 -5 31 -26 28 -4 0 -10 4 -13 10
-5 8 -12 7 -23 -2z"/>
<path d="M140 510 c-6 -4 -10 -22 -8 -41 7 -62 79 -48 76 14 -1 28 -5 32 -29
33 -15 1 -33 -2 -39 -6z"/>
<path d="M140 367 c-14 -5 -31 -11 -38 -13 -7 -1 -24 -14 -38 -29 -21 -23 -24
-36 -24 -99 0 -63 3 -77 25 -102 14 -16 25 -25 25 -21 0 5 7 1 16 -7 18 -18
114 -23 114 -5 0 5 5 7 10 4 6 -3 10 -1 10 6 0 7 3 9 6 6 9 -9 45 33 38 45 -3
4 0 7 6 6 13 -3 17 10 24 74 2 25 0 36 -7 31 -6 -4 -8 1 -6 13 3 12 -6 30 -23
47 -15 15 -28 24 -28 20 0 -4 -6 -1 -13 7 -7 9 -23 16 -37 15 -14 0 -27 3 -30
6 -3 4 -16 2 -30 -4z m66 -92 c4 -8 10 -12 15 -9 5 3 9 2 10 -3 0 -4 2 -18 3
-30 4 -38 -24 -69 -64 -70 -18 0 -40 6 -47 13 -15 14 -27 98 -13 89 4 -2 13 2
20 10 16 20 69 19 76 0z"/>
<path d="M381 257 c-6 -6 -6 -18 0 -34 7 -18 6 -22 -4 -17 -8 5 -9 4 -2 -4 24
-26 97 -19 81 7 -4 6 -2 11 3 11 13 0 10 20 -5 36 -13 14 -59 15 -73 1z"/>
<path d="M521 228 c-1 -25 3 -38 11 -39 7 -1 20 -2 28 -3 27 -3 45 12 48 38 2
29 -11 39 -53 41 -29 2 -31 0 -34 -37z"/>
<path d="M664 258 c-5 -7 -2 -8 7 -4 8 4 5 0 -5 -8 -12 -10 -15 -16 -7 -16 8
0 11 -8 8 -20 -3 -11 -1 -18 4 -14 5 3 9 1 9 -4 0 -12 42 -10 56 3 12 10 13
43 2 61 -9 14 -66 16 -74 2z"/>
<path d="M820 260 c-15 -9 -20 -59 -7 -67 5 -3 24 -7 41 -8 30 -1 32 1 32 37
0 21 -2 38 -5 39 -34 5 -52 4 -61 -1z"/>
<path d="M967 257 c-12 -8 -16 -21 -13 -37 2 -14 5 -27 5 -30 1 -5 30 -5 62
-1 15 2 16 41 2 60 -16 24 -32 26 -56 8z"/>
</g>
</svg>
